<?xml version="1.0" standalone="no"?>
<!DOCTYPE svg PUBLIC "-//W3C//DTD SVG 20010904//EN"
 "http://www.w3.org/TR/2001/REC-SVG-20010904/DTD/svg10.dtd">
<svg version="1.0" xmlns="http://www.w3.org/2000/svg"
 width="16.000000pt" height="16.000000pt" viewBox="0 0 16.000000 16.000000"
 preserveAspectRatio="xMidYMid meet">
<metadata>
Created by potrace 1.11, written by Peter Selinger 2001-2013
</metadata>
<g transform="translate(0.000000,16.000000) scale(0.004167,-0.004167)"
fill="#000000" stroke="none">
<path d="M1670 3540 c-49 -12 -87 -29 -405 -185 -154 -76 -361 -177 -460 -225
-578 -281 -535 -258 -600 -324 -99 -101 -158 -235 -158 -360 0 -56 42 -381
108 -831 3 -16 25 -172 49 -345 49 -348 62 -396 132 -489 83 -110 185 -177
314 -205 220 -48 1393 -247 1453 -247 134 0 266 58 367 160 55 56 80 95 168
263 111 210 100 198 187 213 17 3 41 7 55 10 14 3 84 15 157 27 72 12 130 25
128 28 -2 3 11 5 28 5 18 1 52 4 77 8 25 5 58 10 74 12 48 7 134 54 185 101
53 48 107 146 117 208 3 21 8 48 10 60 6 26 16 120 18 164 0 17 4 32 7 32 3 0
6 6 6 13 0 6 3 37 8 67 4 30 8 69 10 85 4 47 15 107 20 115 3 5 0 12 -6 16 -7
4 -8 9 -1 13 11 7 25 98 26 168 1 22 4 39 8 37 4 -3 7 4 7 13 -1 10 2 34 5 53
2 19 7 57 11 84 3 28 8 52 10 55 3 2 -1 11 -8 19 -9 13 -9 14 1 8 12 -7 15 8
14 99 0 52 -20 127 -32 120 -6 -3 -7 1 -4 9 8 20 -63 129 -78 120 -6 -4 -8 -3
-5 3 7 11 -32 49 -66 63 -12 6 -29 14 -37 20 -21 14 -348 170 -363 173 -6 1
-18 8 -26 15 -7 7 -20 11 -28 8 -8 -3 -12 -2 -9 2 5 9 -122 75 -138 72 -5 -1
-12 3 -15 8 -6 10 -136 72 -147 71 -4 0 -10 3 -13 8 -11 15 -82 43 -93 37 -6
-4 -8 -2 -5 3 8 13 -20 26 -36 16 -7 -3 -9 -2 -4 2 9 11 -91 58 -109 51 -8 -3
-14 -1 -14 4 0 5 -8 9 -17 9 -10 0 -33 2 -50 5 -18 3 -33 2 -33 -2 0 -4 -19
-8 -41 -9 -23 -1 -58 -8 -78 -17 l-38 -15 -107 110 c-117 118 -192 165 -304
188 -61 13 -180 13 -232 1z m940 -544 c0 -2 -8 -10 -17 -17 -16 -13 -17 -12
-4 4 13 16 21 21 21 13z m680 -1230 c0 -2 -7 -7 -16 -10 -8 -3 -12 -2 -9 4 6
10 25 14 25 6z m237 -91 c0 -8 -4 -12 -9 -9 -5 3 -6 10 -3 15 9 13 12 11 12
-6z"/>
</g>
</svg>
