<?xml version="1.0" standalone="no"?>
<!DOCTYPE svg PUBLIC "-//W3C//DTD SVG 20010904//EN"
 "https://www.w3.org/TR/2001/REC-SVG-20010904/DTD/svg10.dtd">
<svg version="1.0" xmlns="https://www.w3.org/2000/svg"
 width="16.000000pt" height="16.000000pt" viewBox="0 0 16.000000 16.000000"
 preserveAspectRatio="xMidYMid meet">
<metadata>
Created by potrace 1.11, written by Peter Selinger 2001-2013
</metadata>
<g transform="translate(0.000000,16.000000) scale(0.004167,-0.004167)"
fill="#000000" stroke="none">
<path d="M1715 3543 c-49 -10 -129 -46 -415 -186 -168 -82 -372 -182 -455
-222 -517 -249 -544 -264 -611 -330 -104 -105 -169 -265 -157 -394 3 -45 54
-412 153 -1111 27 -190 56 -364 64 -387 49 -139 184 -274 319 -320 73 -25
1448 -264 1520 -264 134 0 266 58 367 160 55 56 80 95 168 264 l104 197 41 7
c23 4 45 6 50 5 4 -1 7 2 7 8 0 5 6 7 14 4 8 -3 17 0 21 5 3 6 10 9 15 6 5 -3
40 -1 77 6 37 6 82 13 98 15 17 3 41 7 55 11 14 3 31 5 39 4 7 -1 11 1 8 6 -3
4 14 8 36 8 62 1 208 36 200 48 -4 6 -1 7 6 3 15 -10 124 61 116 75 -4 5 -2 8
3 7 28 -8 114 137 117 199 1 19 5 37 9 40 3 3 0 13 -7 21 -9 13 -9 14 1 8 8
-5 12 0 13 16 2 50 12 120 24 178 3 14 7 45 10 70 8 71 15 123 20 150 3 14 7
45 10 69 3 23 7 56 10 73 3 16 8 51 11 76 6 59 21 168 28 207 13 69 20 143 19
190 -2 79 -55 214 -83 207 -6 -1 -8 3 -4 9 7 11 -66 87 -88 92 -7 1 -19 8 -27
15 -7 7 -20 11 -28 8 -8 -3 -12 -2 -9 2 7 12 -63 44 -76 36 -6 -4 -8 -3 -5 3
8 12 -189 107 -203 98 -6 -4 -9 -1 -8 7 2 8 -6 13 -19 12 -12 0 -21 2 -20 5 1
3 -2 8 -8 10 -5 2 -27 15 -47 28 -21 13 -38 21 -38 19 0 -3 -52 22 -116 55
-64 32 -122 59 -129 59 -7 0 -15 3 -17 8 -4 10 -189 98 -199 95 -5 -2 -9 1 -9
6 0 8 -10 12 -60 28 -74 22 -184 17 -253 -12 l-34 -14 -107 109 c-88 90 -120
116 -179 144 -40 19 -96 39 -125 45 -51 11 -176 13 -217 4z m1095 -667 c-7 -7
-13 -7 -20 0 -6 6 -3 10 10 10 13 0 16 -4 10 -10z m957 -711 c0 -8 -4 -12 -9
-9 -5 3 -6 10 -3 15 9 13 12 11 12 -6z m-240 -490 c0 -8 -4 -12 -9 -9 -5 3 -6
10 -3 15 9 13 12 11 12 -6z m13 -391 c0 -8 -19 -13 -24 -6 -3 5 1 9 9 9 8 0
15 -2 15 -3z"/>
</g>
</svg>
